#Comment line ignore any data following # character 
#Hierarchical Translation and Rotation (.htr) file 
[Header]	
#Header keywords are followed by a single value 
FileType HTR		#Single word string
DataType HTRS		#Translation followed by rotation and scale data
FileVersion 1		#integer
NumSegments 84		#integer
NumFrames 2		#integer
DataFrameRate 30		#integer, data frame rate in this file
EulerRotationOrder ZYX
CalibrationUnits mm
RotationUnits Degrees
GlobalAxisofGravity Y
BoneLengthAxis Y
ScaleFactor 1.00
[SegmentNames&Hierarchy]
#CHILD	PARENT
MASTER GLOBAL
root MASTER
chest root
L_mid_tent01 root
R_mid_tent01 root
spine01 root
Bip01_Neck chest
L_humerus chest
R_humerus chest
weapon_bone chest
Bip01_Head Bip01_Neck
eye_left_bone Bip01_Head
eye_right_bone Bip01_Head
L_forearm L_humerus
L_front_hand L_forearm
L_weapon_bone L_forearm
L_front_hand01_01 L_front_hand
L_front_hand02_01 L_front_hand
L_front_hand03_01 L_front_hand
L_front_hand01_02 L_front_hand01_01
L_front_hand02_02 L_front_hand02_01
L_front_hand03_02 L_front_hand03_01
R_forearm R_humerus
R_front_hand R_forearm
R_weapon_bone R_forearm
R_front_hand01_01 R_front_hand
R_front_hand02_01 R_front_hand
R_front_hand03_01 R_front_hand
R_front_hand01_02 R_front_hand01_01
R_front_hand02_02 R_front_hand02_01
R_front_hand03_02 R_front_hand03_01
null_rope01_connect L_mid_tent01
Rope1_Seg01 null_rope01_connect
Rope1_Seg02 Rope1_Seg01
Rope1_Seg03 Rope1_Seg02
Rope1_Seg04 Rope1_Seg03
Rope1_Seg05 Rope1_Seg04
Rope1_Seg06 Rope1_Seg05
Rope1_Seg07 Rope1_Seg06
Rope1_Seg09 Rope1_Seg07
L_mid_hand01 Rope1_Seg09
L_mid_hand02 Rope1_Seg09
L_mid_hand03 Rope1_Seg09
null_rope02_connect R_mid_tent01
Rope2_Seg01 null_rope02_connect
Rope2_Seg02 Rope2_Seg01
Rope2_Seg03 Rope2_Seg02
Rope2_Seg04 Rope2_Seg03
Rope2_Seg05 Rope2_Seg04
Rope2_Seg06 Rope2_Seg05
Rope2_Seg07 Rope2_Seg06
Rope2_Seg09 Rope2_Seg07
R_mid_hand01 Rope2_Seg09
R_mid_hand02 Rope2_Seg09
R_mid_hand03 Rope2_Seg09
spine02 spine01
spine03 spine02
pelvis spine03
null_rope03_connect pelvis
null_rope04_connect pelvis
Rope3_Seg01 null_rope03_connect
Rope3_Seg02 Rope3_Seg01
Rope3_Seg03 Rope3_Seg02
Rope3_Seg04 Rope3_Seg03
Rope3_Seg05 Rope3_Seg04
Rope3_Seg06 Rope3_Seg05
Rope3_Seg07 Rope3_Seg06
Rope3_Seg08 Rope3_Seg07
Rope3_Seg09 Rope3_Seg08
R_rear_hand01 Rope3_Seg09
R_rear_hand02 Rope3_Seg09
R_rear_hand03 Rope3_Seg09
Rope4_Seg01 null_rope04_connect
Rope4_Seg02 Rope4_Seg01
Rope4_Seg03 Rope4_Seg02
Rope4_Seg04 Rope4_Seg03
Rope4_Seg05 Rope4_Seg04
Rope4_Seg06 Rope4_Seg05
Rope4_Seg07 Rope4_Seg06
Rope4_Seg08 Rope4_Seg07
Rope4_Seg09 Rope4_Seg08
L_rear_hand01 Rope4_Seg09
L_rear_hand02 Rope4_Seg09
L_rear_hand03 Rope4_Seg09
[BasePosition]
#SegmentName Tx, Ty, Tz, Rx, Ry, Rz, BoneLength
MASTER 0.000000 0.000000 0.000000 -90.000000 0.000000 0.000000 10.000000 
root 0.000000 0.000000 0.000000 0.000000 0.000000 0.000000 10.000000 
chest 0.000000 0.000000 0.000000 0.000000 0.000000 0.000000 10.000000 
L_mid_tent01 0.000000 0.000000 0.000000 0.000000 0.000000 0.000000 10.000000 
R_mid_tent01 0.000000 0.000000 0.000000 0.000000 0.000000 0.000000 10.000000 
spine01 0.000000 0.000000 0.000000 0.000000 0.000000 0.000000 10.000000 
Bip01_Neck 0.000000 0.000000 0.000000 0.000000 0.000000 0.000000 10.000000 
L_humerus 0.000000 0.000000 0.000000 0.000000 0.000000 0.000000 10.000000 
R_humerus 0.000000 0.000000 0.000000 0.000000 0.000000 0.000000 10.000000 
weapon_bone 0.000000 0.000000 0.000000 0.000000 0.000000 0.000000 10.000000 
Bip01_Head 0.000000 0.000000 0.000000 0.000000 0.000000 0.000000 10.000000 
eye_left_bone 0.000000 0.000000 0.000000 0.000000 0.000000 0.000000 10.000000 
eye_right_bone 0.000000 0.000000 0.000000 0.000000 0.000000 0.000000 10.000000 
L_forearm 0.000000 0.000000 0.000000 0.000000 0.000000 0.000000 10.000000 
L_front_hand 0.000000 0.000000 0.000000 0.000000 0.000000 0.000000 10.000000 
L_weapon_bone 0.000000 0.000000 0.000000 0.000000 0.000000 0.000000 10.000000 
L_front_hand01_01 0.000000 0.000000 0.000000 0.000000 0.000000 0.000000 10.000000 
L_front_hand02_01 0.000000 0.000000 0.000000 0.000000 0.000000 0.000000 10.000000 
L_front_hand03_01 0.000000 0.000000 0.000000 0.000000 0.000000 0.000000 10.000000 
L_front_hand01_02 0.000000 0.000000 0.000000 0.000000 0.000000 0.000000 10.000000 
L_front_hand02_02 0.000000 0.000000 0.000000 0.000000 0.000000 0.000000 10.000000 
L_front_hand03_02 0.000000 0.000000 0.000000 0.000000 0.000000 0.000000 10.000000 
R_forearm 0.000000 0.000000 0.000000 0.000000 0.000000 0.000000 10.000000 
R_front_hand 0.000000 0.000000 0.000000 0.000000 0.000000 0.000000 10.000000 
R_weapon_bone 0.000000 0.000000 0.000000 0.000000 0.000000 0.000000 10.000000 
R_front_hand01_01 0.000000 0.000000 0.000000 0.000000 0.000000 0.000000 10.000000 
R_front_hand02_01 0.000000 0.000000 0.000000 0.000000 0.000000 0.000000 10.000000 
R_front_hand03_01 0.000000 0.000000 0.000000 0.000000 0.000000 0.000000 10.000000 
R_front_hand01_02 0.000000 0.000000 0.000000 0.000000 0.000000 0.000000 10.000000 
R_front_hand02_02 0.000000 0.000000 0.000000 0.000000 0.000000 0.000000 10.000000 
R_front_hand03_02 0.000000 0.000000 0.000000 0.000000 0.000000 0.000000 10.000000 
null_rope01_connect 0.000000 0.000000 0.000000 0.000000 0.000000 0.000000 10.000000 
Rope1_Seg01 0.000000 0.000000 0.000000 0.000000 0.000000 0.000000 10.000000 
Rope1_Seg02 0.000000 0.000000 0.000000 0.000000 0.000000 0.000000 10.000000 
Rope1_Seg03 0.000000 0.000000 0.000000 0.000000 0.000000 0.000000 10.000000 
Rope1_Seg04 0.000000 0.000000 0.000000 0.000000 0.000000 0.000000 10.000000 
Rope1_Seg05 0.000000 0.000000 0.000000 0.000000 0.000000 0.000000 10.000000 
Rope1_Seg06 0.000000 0.000000 0.000000 0.000000 0.000000 0.000000 10.000000 
Rope1_Seg07 0.000000 0.000000 0.000000 0.000000 0.000000 0.000000 10.000000 
Rope1_Seg09 0.000000 0.000000 0.000000 0.000000 0.000000 0.000000 10.000000 
L_mid_hand01 0.000000 0.000000 0.000000 0.000000 0.000000 0.000000 10.000000 
L_mid_hand02 0.000000 0.000000 0.000000 0.000000 0.000000 0.000000 10.000000 
L_mid_hand03 0.000000 0.000000 0.000000 0.000000 0.000000 0.000000 10.000000 
null_rope02_connect 0.000000 0.000000 0.000000 0.000000 0.000000 0.000000 10.000000 
Rope2_Seg01 0.000000 0.000000 0.000000 0.000000 0.000000 0.000000 10.000000 
Rope2_Seg02 0.000000 0.000000 0.000000 0.000000 0.000000 0.000000 10.000000 
Rope2_Seg03 0.000000 0.000000 0.000000 0.000000 0.000000 0.000000 10.000000 
Rope2_Seg04 0.000000 0.000000 0.000000 0.000000 0.000000 0.000000 10.000000 
Rope2_Seg05 0.000000 0.000000 0.000000 0.000000 0.000000 0.000000 10.000000 
Rope2_Seg06 0.000000 0.000000 0.000000 0.000000 0.000000 0.000000 10.000000 
Rope2_Seg07 0.000000 0.000000 0.000000 0.000000 0.000000 0.000000 10.000000 
Rope2_Seg09 0.000000 0.000000 0.000000 0.000000 0.000000 0.000000 10.000000 
R_mid_hand01 0.000000 0.000000 0.000000 0.000000 0.000000 0.000000 10.000000 
R_mid_hand02 0.000000 0.000000 0.000000 0.000000 0.000000 0.000000 10.000000 
R_mid_hand03 0.000000 0.000000 0.000000 0.000000 0.000000 0.000000 10.000000 
spine02 0.000000 0.000000 0.000000 0.000000 0.000000 0.000000 10.000000 
spine03 0.000000 0.000000 0.000000 0.000000 0.000000 0.000000 10.000000 
pelvis 0.000000 0.000000 0.000000 0.000000 0.000000 0.000000 10.000000 
null_rope03_connect 0.000000 0.000000 0.000000 0.000000 0.000000 0.000000 10.000000 
null_rope04_connect 0.000000 0.000000 0.000000 0.000000 0.000000 0.000000 10.000000 
Rope3_Seg01 0.000000 0.000000 0.000000 0.000000 0.000000 0.000000 10.000000 
Rope3_Seg02 0.000000 0.000000 0.000000 0.000000 0.000000 0.000000 10.000000 
Rope3_Seg03 0.000000 0.000000 0.000000 0.000000 0.000000 0.000000 10.000000 
Rope3_Seg04 0.000000 0.000000 0.000000 0.000000 0.000000 0.000000 10.000000 
Rope3_Seg05 0.000000 0.000000 0.000000 0.000000 0.000000 0.000000 10.000000 
Rope3_Seg06 0.000000 0.000000 0.000000 0.000000 0.000000 0.000000 10.000000 
Rope3_Seg07 0.000000 0.000000 0.000000 0.000000 0.000000 0.000000 10.000000 
Rope3_Seg08 0.000000 0.000000 0.000000 0.000000 0.000000 0.000000 10.000000 
Rope3_Seg09 0.000000 0.000000 0.000000 0.000000 0.000000 0.000000 10.000000 
R_rear_hand01 0.000000 0.000000 0.000000 0.000000 0.000000 0.000000 10.000000 
R_rear_hand02 0.000000 0.000000 0.000000 0.000000 0.000000 0.000000 10.000000 
R_rear_hand03 0.000000 0.000000 0.000000 0.000000 0.000000 0.000000 10.000000 
Rope4_Seg01 0.000000 0.000000 0.000000 0.000000 0.000000 0.000000 10.000000 
Rope4_Seg02 0.000000 0.000000 0.000000 0.000000 0.000000 0.000000 10.000000 
Rope4_Seg03 0.000000 0.000000 0.000000 0.000000 0.000000 0.000000 10.000000 
Rope4_Seg04 0.000000 0.000000 0.000000 0.000000 0.000000 0.000000 10.000000 
Rope4_Seg05 0.000000 0.000000 0.000000 0.000000 0.000000 0.000000 10.000000 
Rope4_Seg06 0.000000 0.000000 0.000000 0.000000 0.000000 0.000000 10.000000 
Rope4_Seg07 0.000000 0.000000 0.000000 0.000000 0.000000 0.000000 10.000000 
Rope4_Seg08 0.000000 0.000000 0.000000 0.000000 0.000000 0.000000 10.000000 
Rope4_Seg09 0.000000 0.000000 0.000000 0.000000 0.000000 0.000000 10.000000 
L_rear_hand01 0.000000 0.000000 0.000000 0.000000 0.000000 0.000000 10.000000 
L_rear_hand02 0.000000 0.000000 0.000000 0.000000 0.000000 0.000000 10.000000 
L_rear_hand03 0.000000 0.000000 0.000000 0.000000 0.000000 0.000000 10.000000 
#Beginning of Data. Separated by tabs
#Fr	Tx	Ty	Tz	Rx	Ry	Rz	SF
[MASTER]
3 0.000003 -0.000010 -194.190460 0.001660 0.001660 0.001660 194.190460
4 0.000003 -0.000016 -331.010132 0.001660 0.001660 0.001660 331.010132
[root]
3 -16.502304 7.230180 1448.589722 -91.926140 -17.228504 -89.112076 1448.701660
4 -16.502304 6.163202 1448.724487 -92.089729 -21.980465 -89.024033 1448.831665
[chest]
3 -84.512650 -34.090519 0.000000 -2.209866 -0.439532 172.472610 91.129311
4 -84.512650 -34.090519 0.000000 -2.276269 -0.716966 175.396011 91.129311
[L_mid_tent01]
3 27.299097 22.179098 -249.918701 -16.326464 16.038872 26.219938 252.381683
4 27.299095 22.179094 -249.918701 -13.214826 17.964214 34.549252 252.381683
[R_mid_tent01]
3 23.228794 24.509907 226.238495 -173.678162 -22.123671 38.453354 228.744751
4 23.228794 24.509907 226.238495 -179.720673 -23.796818 48.188862 228.744751
[spine01]
3 -0.361383 -0.195265 0.000000 0.001923 0.001346 19.999533 0.410763
4 -0.361383 -0.195265 0.000000 0.001906 0.001370 18.559778 0.410763
[Bip01_Neck]
3 165.484543 71.581718 0.000119 176.643677 -1.657967 43.431911 180.302734
4 165.484543 71.581718 0.000119 176.643677 -1.657967 43.431911 180.302734
[L_humerus]
3 -13.983130 -135.272980 -120.471481 16.392090 82.169594 105.881584 181.680161
4 -13.983130 -135.272980 -120.471481 108.643097 84.910187 -162.038666 181.680161
[R_humerus]
3 -13.983309 -135.273102 125.287651 49.667286 -84.074203 45.701054 184.909012
4 -13.983309 -135.273102 125.287651 166.397400 -84.252937 -71.200615 184.909012
[weapon_bone]
3 235.964890 -300.705902 0.000000 0.000000 -89.951546 -128.212341 382.234833
4 235.964890 -300.705902 0.000000 0.000000 -89.951546 -128.212341 382.234833
[Bip01_Head]
3 213.443558 185.717041 11.755694 4.962490 2.797846 -43.898743 283.173401
4 213.443283 185.717896 11.745069 4.962491 2.797846 -43.898743 283.173309
[eye_left_bone]
3 -24.626970 125.451866 -64.772606 0.000000 -90.000000 -99.840431 143.318359
4 -24.626970 125.451866 -64.772606 0.000000 -90.000000 -99.840431 143.318359
[eye_right_bone]
3 -24.626970 125.451866 64.327362 0.000000 -89.965736 80.156380 143.117676
4 -24.626970 125.451866 64.327362 0.000000 -89.965736 80.156380 143.117676
[L_forearm]
3 322.776093 0.000000 -0.000119 0.000348 -0.002321 -107.051544 322.776093
4 322.776093 0.000000 -0.000119 0.000319 -0.002325 -105.605576 322.776093
[L_front_hand]
3 241.149185 -0.042021 -3.300071 -178.667953 -1.835447 -27.422350 241.171753
4 241.149185 -0.042021 -3.300071 -178.667953 -1.835447 -27.422350 241.171753
[L_weapon_bone]
3 156.183838 0.000000 0.000000 0.000014 0.000007 0.000001 156.183838
4 156.183838 0.000000 0.000000 0.000014 0.000007 0.000001 156.183838
[L_front_hand01_01]
3 86.095154 20.947098 -0.655860 -0.366594 -0.477154 75.385574 88.609184
4 86.095154 20.947098 -0.655860 -0.366594 -0.477154 75.385574 88.609184
[L_front_hand02_01]
3 86.935165 -11.437475 24.513514 154.399811 -59.883842 -61.369587 91.046425
4 86.935165 -11.437475 24.513514 154.399796 -59.883835 -61.369587 91.046425
[L_front_hand03_01]
3 86.637497 -14.123976 -20.424902 -153.913864 58.118130 -62.702885 90.126129
4 86.637497 -14.123976 -20.424902 -153.913849 58.118122 -62.702866 90.126129
[L_front_hand01_02]
3 71.020905 -0.000179 0.000030 0.000334 -0.002323 -106.379684 71.020905
4 71.020905 -0.000179 0.000030 0.000334 -0.002323 -106.379684 71.020905
[L_front_hand02_02]
3 71.020927 -0.000119 0.000060 0.000334 -0.002323 -106.379684 71.020927
4 71.020927 -0.000119 0.000060 0.000334 -0.002323 -106.379684 71.020927
[L_front_hand03_02]
3 71.020905 -0.000060 0.000060 0.000334 -0.002323 -106.379684 71.020905
4 71.020905 -0.000060 0.000060 0.000334 -0.002323 -106.379684 71.020905
[R_forearm]
3 322.776428 -0.000060 0.000030 0.204371 0.054002 -105.673599 322.776428
4 322.776428 -0.000060 0.000030 0.208944 0.048358 -104.214317 322.776428
[R_front_hand]
3 238.847015 -0.006795 2.210259 -2.635298 -10.645461 -26.312506 238.857239
4 238.847015 -0.006795 2.210259 -2.635298 -10.645461 -26.312506 238.857239
[R_weapon_bone]
3 155.664093 0.002503 -0.000030 0.003487 0.001180 -90.988930 155.664078
4 155.664093 0.002503 -0.000030 0.003487 0.001180 -90.988930 155.664078
[R_front_hand01_01]
3 87.624611 14.231146 22.918642 -154.633499 -59.950619 61.746044 91.683487
4 87.624611 14.231146 22.918642 -154.633499 -59.950619 61.746044 91.683487
[R_front_hand02_01]
3 89.356956 14.367283 -19.491137 154.602661 58.302864 63.744389 92.579636
4 89.356956 14.367283 -19.491137 154.602661 58.302849 63.744389 92.579636
[R_front_hand03_01]
3 87.286232 -22.307278 -0.143439 0.162155 -0.423168 -75.767921 90.091743
4 87.286232 -22.307278 -0.143439 0.162155 -0.423168 -75.767921 90.091743
[R_front_hand01_02]
3 71.020905 0.000060 0.000119 0.002323 -0.000334 106.381714 71.020905
4 71.020905 0.000060 0.000119 0.002323 -0.000334 106.381714 71.020905
[R_front_hand02_02]
3 71.020844 -0.000030 -0.000119 0.002323 -0.000334 106.381714 71.020836
4 71.020844 -0.000030 -0.000119 0.002323 -0.000334 106.381714 71.020836
[R_front_hand03_02]
3 71.020905 0.000000 0.000030 0.002323 -0.000334 106.381714 71.020905
4 71.020905 0.000000 0.000030 0.002323 -0.000334 106.381714 71.020905
[null_rope01_connect]
3 328.732483 0.000000 -0.000238 -148.572449 -65.893646 -132.458893 328.732483
4 328.732483 0.000000 -0.000238 -143.061722 -66.434456 -141.314819 328.732483
[Rope1_Seg01]
3 0.000036 -0.000040 0.000028 34.762806 -1.472976 -125.984932 0.000061
4 0.000036 -0.000041 0.000042 25.519825 3.707705 -132.589661 0.000068
[Rope1_Seg02]
3 139.999863 -0.000179 0.000000 12.210311 7.166714 1.422060 139.999863
4 139.999863 -0.000179 0.000000 11.216732 8.685294 1.852913 139.999863
[Rope1_Seg03]
3 139.999924 0.000060 -0.000060 4.134416 6.888870 -3.329535 139.999924
4 139.999924 0.000060 -0.000060 3.675165 6.541132 -2.405404 139.999924
[Rope1_Seg04]
3 139.999924 -0.000060 -0.000119 8.343872 4.815355 3.539892 139.999924
4 139.999924 -0.000060 -0.000119 6.856211 2.165905 6.026039 139.999924
[Rope1_Seg05]
3 139.999832 0.000119 -0.000060 13.240679 3.116479 9.083133 139.999832
4 139.999832 0.000119 -0.000060 10.025028 1.409793 8.852381 139.999832
[Rope1_Seg06]
3 139.999954 0.000119 -0.000060 7.124369 2.799333 3.482560 139.999954
4 139.999954 0.000119 -0.000060 7.128734 2.155716 4.428988 139.999954
[Rope1_Seg07]
3 139.999985 0.000060 0.000000 4.514237 2.075656 1.890432 139.999985
4 139.999985 0.000060 0.000000 5.582127 1.955462 3.004303 139.999985
[Rope1_Seg09]
3 121.602913 0.000119 -0.000089 -89.793175 -1.359789 0.847147 121.602913
4 121.602913 0.000119 -0.000089 -89.793175 -1.359789 0.847147 121.602913
[L_mid_hand01]
3 103.859421 1.038730 8.195221 130.544373 -67.584534 -38.866943 104.187431
4 103.859421 1.038730 8.195221 130.544373 -67.584534 -38.866943 104.187431
[L_mid_hand02]
3 105.572853 -4.139662 -10.864139 -168.923172 43.409309 -73.498886 106.211075
4 105.572853 -4.139662 -10.864139 -168.923172 43.409309 -73.498886 106.211075
[L_mid_hand03]
3 104.641464 17.579376 -3.913581 -6.012627 17.808174 74.893669 106.179977
4 104.641464 17.579376 -3.913581 -6.012627 17.808174 74.893669 106.179977
[null_rope02_connect]
3 328.732849 0.000179 -0.000119 -123.561897 67.844246 -10.774905 328.732849
4 328.732849 0.000179 -0.000119 -112.630249 66.839546 4.001132 328.732849
[Rope2_Seg01]
3 0.000066 0.000113 0.000000 24.330822 12.917132 -42.515278 0.000131
4 0.000061 0.000113 0.000000 26.590202 24.373482 -40.865475 0.000128
[Rope2_Seg02]
3 139.999741 -0.000060 -0.000119 -23.383480 -12.252726 -7.434606 139.999756
4 139.999741 -0.000060 -0.000119 -13.340646 -16.657499 -1.614749 139.999756
[Rope2_Seg03]
3 140.000107 0.000030 0.000000 -20.804543 -7.366038 -6.828537 140.000107
4 140.000107 0.000030 0.000000 -18.573025 -10.180364 -4.600747 140.000107
[Rope2_Seg04]
3 139.999802 0.000000 -0.000060 -11.404046 5.618371 -10.120172 139.999802
4 139.999802 0.000000 -0.000060 -10.354335 6.419249 -9.786783 139.999802
[Rope2_Seg05]
3 139.999985 -0.000060 0.000119 -2.844047 5.828088 -4.969383 139.999985
4 139.999985 -0.000060 0.000119 -3.347505 3.651995 -4.388104 139.999985
[Rope2_Seg06]
3 139.999893 -0.000030 -0.000119 -1.512107 2.712191 -2.696135 139.999893
4 139.999893 -0.000030 -0.000119 -1.808693 2.132348 -2.624533 139.999893
[Rope2_Seg07]
3 139.999893 0.000060 -0.000060 -0.861655 1.818975 -1.718608 139.999893
4 139.999893 0.000060 -0.000060 -0.827052 1.115122 -1.292389 139.999893
[Rope2_Seg09]
3 121.338966 0.000089 -0.000060 33.793236 -1.359788 -0.847141 121.338966
4 121.338966 0.000089 -0.000060 33.793236 -1.359788 -0.847141 121.338966
[R_mid_hand01]
3 104.680779 11.144459 -10.335981 -16.212059 45.237240 70.462852 105.778534
4 104.680779 11.144459 -10.335981 -16.212063 45.237247 70.462852 105.778534
[R_mid_hand02]
3 104.070427 2.443552 8.231699 49.067379 -67.749794 39.286465 104.424065
4 104.070427 2.443552 8.231699 49.067368 -67.749771 39.286453 104.424065
[R_mid_hand03]
3 106.028137 -11.221827 -5.996406 -177.101105 15.551026 -76.585571 106.788818
4 106.028137 -11.221827 -5.996406 -177.101105 15.551026 -76.585571 106.788818
[spine02]
3 129.756927 0.001550 0.000119 0.115101 -4.059040 -9.485216 129.756927
4 129.756927 0.001550 0.000119 -0.033358 -4.060306 -7.395790 129.756927
[spine03]
3 78.614075 0.081744 -4.899006 1.754187 3.899712 14.336943 78.766609
4 78.614075 0.081743 -4.899005 1.662403 3.939662 13.038461 78.766609
[pelvis]
3 169.435242 0.051022 0.000000 -0.048700 -0.182798 9.766464 169.435257
4 169.435242 0.051022 0.000000 -0.039859 -0.189112 7.133076 169.435257
[null_rope03_connect]
3 -1.257226 -2.466202 137.391083 154.802216 -88.929543 -82.156525 137.418976
4 -1.257226 -2.466202 137.391083 163.515808 -88.716866 -82.823357 137.418976
[null_rope04_connect]
3 -1.259640 -2.480268 -137.844437 154.802216 -88.929543 -82.156525 137.872513
4 -1.259640 -2.480268 -137.844437 163.515808 -88.716866 -82.823357 137.872513
[Rope3_Seg01]
3 0.000000 0.000000 0.000000 15.227752 20.037170 -85.811119 0.000000
4 0.000000 0.000000 0.000000 15.032558 19.703243 -86.413086 0.000000
[Rope3_Seg02]
3 139.999924 -0.000119 0.000060 0.301142 4.806986 4.653770 139.999924
4 139.999924 -0.000119 0.000060 0.780054 9.600393 5.831890 139.999924
[Rope3_Seg03]
3 139.999924 -0.000119 0.000119 0.503041 5.408338 7.139981 139.999924
4 139.999924 -0.000119 0.000119 2.090703 11.016392 9.237178 139.999924
[Rope3_Seg04]
3 139.999924 0.000119 0.000000 0.657931 5.499993 6.428935 139.999924
4 139.999924 0.000119 0.000000 2.892227 9.225256 5.224783 139.999924
[Rope3_Seg05]
3 139.999924 -0.000238 0.000060 2.152518 1.351912 -9.998251 139.999924
4 139.999924 -0.000238 0.000060 3.125161 0.086630 -11.642700 139.999924
[Rope3_Seg06]
3 139.999893 -0.000119 -0.000060 1.270405 0.222421 -7.826536 139.999893
4 139.999893 -0.000119 -0.000060 1.672165 -0.554374 -8.095350 139.999893
[Rope3_Seg07]
3 139.999771 0.000060 -0.000119 0.781174 0.494112 -3.996977 139.999771
4 139.999771 0.000060 -0.000119 1.051918 0.230518 -4.438759 139.999771
[Rope3_Seg08]
3 139.999985 -0.000060 0.000000 0.638590 0.278031 -2.544072 139.999985
4 139.999985 -0.000060 0.000000 0.795809 0.095504 -2.826967 139.999985
[Rope3_Seg09]
3 90.185997 -0.000179 -0.000060 89.793228 -1.359877 -0.847183 90.185997
4 90.185997 -0.000179 -0.000060 89.793228 -1.359877 -0.847183 90.185997
[R_rear_hand01]
3 103.366196 -6.073594 -10.757982 -177.714203 24.565960 -73.910950 104.101845
4 103.366196 -6.073594 -10.757982 -177.714203 24.565960 -73.910950 104.101845
[R_rear_hand02]
3 100.509819 12.039542 -7.992327 -12.874829 36.868488 72.167213 101.543350
4 100.509819 12.039542 -7.992327 -12.874829 36.868488 72.167213 101.543350
[R_rear_hand03]
3 101.539970 5.215704 5.435467 71.484573 -71.816628 21.513819 101.819031
4 101.539970 5.215704 5.435467 71.484581 -71.816628 21.513813 101.819031
[Rope4_Seg01]
3 0.000010 0.000036 -0.000146 -104.243591 26.052870 -112.342888 0.000150
4 0.000010 0.000036 -0.000142 -103.309158 24.274307 -111.113213 0.000147
[Rope4_Seg02]
3 139.999985 0.000060 0.000119 0.298131 -2.293487 -1.958343 139.999985
4 139.999985 0.000060 0.000119 0.213147 -0.891486 -1.117778 139.999985
[Rope4_Seg03]
3 139.999924 0.000000 -0.000238 0.364030 -3.289683 -2.794651 139.999924
4 139.999924 0.000000 -0.000238 0.271010 -1.250988 -1.564281 139.999924
[Rope4_Seg04]
3 139.999985 0.000000 0.000119 1.295772 -11.275785 -11.151890 139.999985
4 139.999985 0.000000 0.000119 0.992644 -5.045716 -7.393910 139.999985
[Rope4_Seg05]
3 139.999802 -0.000060 -0.000119 0.532576 4.148125 6.576978 139.999802
4 139.999802 -0.000060 -0.000119 -0.255559 3.823345 6.989642 139.999802
[Rope4_Seg06]
3 139.999924 0.000000 0.000060 0.295658 9.744767 11.252721 139.999924
4 139.999924 0.000000 0.000060 -0.930473 5.110862 8.463464 139.999924
[Rope4_Seg07]
3 139.999802 0.000000 0.000000 -0.328136 2.643531 3.294206 139.999802
4 139.999802 0.000000 0.000000 -0.490931 1.527364 2.760298 139.999802
[Rope4_Seg08]
3 139.999924 0.000000 0.000119 -1.790788 1.445104 1.829211 139.999924
4 139.999924 0.000000 0.000119 -1.861510 0.848194 1.560906 139.999924
[Rope4_Seg09]
3 90.185791 0.000060 0.000060 -135.617828 2.228885 0.850567 90.185791
4 90.185791 0.000060 0.000060 -135.617828 2.228885 0.850567 90.185791
[L_rear_hand01]
3 101.696655 -8.392275 -7.654577 -12.874829 -36.868488 107.832764 102.329041
4 101.696655 -8.392275 -7.654577 -12.874829 -36.868488 107.832764 102.329041
[L_rear_hand02]
3 102.726799 -1.568258 5.773216 71.484573 71.816628 158.486160 102.900848
4 102.726799 -1.568258 5.773216 71.484581 71.816628 158.486160 102.900848
[L_rear_hand03]
3 104.552910 9.721220 -10.420293 -177.714203 -24.565960 -106.089035 105.519653
4 104.552910 9.721220 -10.420293 -177.714203 -24.565960 -106.089035 105.519653
